<?xml version="1.0" standalone="no"?>
<!DOCTYPE svg PUBLIC "-//W3C//DTD SVG 20010904//EN"
 "http://www.w3.org/TR/2001/REC-SVG-20010904/DTD/svg10.dtd">
<svg version="1.0" xmlns="http://www.w3.org/2000/svg"
 width="980.000000pt" height="980.000000pt" viewBox="0 0 980.000000 980.000000"
 preserveAspectRatio="xMidYMid meet">
<metadata>
Created by potrace 1.14, written by Peter Selinger 2001-2017
</metadata>
<g transform="translate(0.000000,980.000000) scale(0.100000,-0.100000)"
fill="#000000" stroke="none">
<path d="M5836 9533 c-15 -19 -26 -36 -24 -39 3 -2 40 -17 84 -33 43 -16 158
-59 254 -96 96 -37 193 -74 215 -82 22 -8 153 -58 290 -110 138 -53 284 -108
325 -123 41 -16 172 -65 290 -110 118 -45 250 -94 292 -110 l77 -29 28 33 c15
18 39 46 53 63 14 17 140 169 280 338 140 168 258 313 263 320 6 11 -192 13
-1196 13 l-1203 0 -28 -35z"/>
<path d="M1203 8915 l0 -641 106 -71 c96 -64 330 -218 811 -535 175 -115 335
-220 830 -546 145 -96 269 -176 276 -179 8 -3 11 342 10 1304 l-1 1308 -1016
1 -1016 1 0 -642z"/>
<path d="M5919 9282 c-13 -15 -71 -84 -129 -152 -110 -131 -419 -496 -500
-590 -26 -30 -100 -118 -165 -195 -66 -77 -121 -142 -125 -145 -3 -3 -15 -17
-26 -32 -12 -15 -41 -51 -66 -80 -42 -48 -462 -543 -562 -662 -23 -26 -49 -58
-59 -70 -11 -11 -62 -72 -115 -135 -54 -63 -151 -178 -217 -255 -66 -78 -140
-166 -165 -196 -25 -29 -60 -69 -77 -89 -33 -37 -40 -51 -24 -51 5 0 96 -58
203 -129 108 -71 260 -172 339 -223 79 -52 250 -165 379 -250 129 -85 343
-226 475 -313 231 -152 533 -351 904 -596 97 -64 177 -115 179 -114 1 1 -22
42 -51 91 -79 130 -266 443 -289 484 -11 19 -43 73 -72 120 -61 102 -62 104
-105 177 -18 32 -40 65 -47 74 -17 19 -42 -13 351 460 472 570 853 1030 890
1074 18 22 94 114 170 205 75 91 151 182 168 204 18 21 37 44 42 50 6 6 96
115 200 241 105 127 227 275 273 329 45 55 79 102 75 106 -7 6 -69 30 -313
121 -41 15 -165 62 -275 104 -110 42 -240 91 -290 109 -49 18 -119 45 -155 59
-36 14 -110 42 -165 62 -55 20 -113 43 -130 50 -44 19 -490 185 -496 185 -3 0
-17 -12 -30 -28z"/>
<path d="M889 8073 c-2 -110 0 -2915 3 -2917 4 -4 897 -456 2201 -1115 l428
-216 32 36 c35 39 62 70 152 174 33 39 62 72 65 75 3 3 30 34 60 69 30 36 66
77 80 92 l25 28 130 -226 c72 -124 142 -246 156 -272 14 -25 47 -81 73 -124
25 -43 46 -80 46 -82 0 -2 19 -36 43 -77 23 -40 51 -89 62 -110 10 -20 26 -45
34 -56 9 -11 210 -118 446 -237 237 -120 597 -302 800 -405 204 -103 568 -288
810 -410 242 -122 625 -317 852 -431 226 -115 414 -209 417 -209 7 0 -16 41
-75 136 -23 38 -71 119 -106 179 -35 61 -95 161 -133 223 -38 63 -70 117 -72
120 -2 4 -59 100 -127 214 l-124 207 -116 98 c-64 53 -118 100 -121 103 -4 5
-86 76 -429 368 -30 26 -75 64 -100 86 -26 21 -71 60 -101 86 -30 26 -122 105
-205 175 -82 70 -175 149 -205 175 -89 77 -699 598 -899 768 -101 87 -204 175
-230 198 -25 22 -77 67 -116 99 -116 97 -190 160 -195 165 -3 3 -57 50 -120
104 -63 54 -140 120 -170 146 -30 26 -138 118 -240 205 -102 86 -201 172 -221
189 -165 142 -612 521 -617 523 -4 1 -36 -34 -72 -78 -36 -44 -70 -84 -75 -89
-7 -6 -11 40 -10 146 0 85 -2 158 -5 162 -3 4 -50 45 -105 92 -55 46 -102 87
-105 90 -3 3 -18 16 -35 29 -16 12 -46 37 -65 54 -19 18 -93 82 -165 142 -71
60 -135 114 -141 120 -38 35 -98 86 -244 210 -91 76 -167 142 -170 145 -3 3
-48 41 -100 85 -52 44 -100 85 -106 90 -30 28 -143 124 -623 534 -30 25 -74
64 -99 86 -65 58 -72 61 -73 28z"/>
<path d="M1200 7981 c0 -33 3 -61 8 -61 4 0 25 -17 47 -38 22 -21 52 -46 66
-57 22 -18 123 -105 168 -145 9 -8 59 -51 111 -95 52 -44 97 -82 100 -85 3 -3
34 -30 70 -60 36 -30 70 -59 76 -65 6 -5 35 -30 64 -55 29 -25 58 -50 64 -55
6 -6 74 -64 151 -129 77 -66 142 -122 145 -125 3 -3 32 -29 65 -57 90 -75 687
-586 817 -698 42 -36 78 -66 81 -66 2 0 4 122 3 272 l-1 272 -130 83 c-71 46
-229 147 -350 225 -121 78 -283 182 -360 231 -77 50 -151 97 -164 106 -13 9
-31 21 -40 26 -38 24 -878 563 -968 623 -23 14 -23 14 -23 -47z"/>
<path d="M3548 6242 l-158 -187 33 -30 c18 -16 62 -55 97 -85 36 -30 67 -57
70 -60 3 -3 48 -41 100 -85 52 -44 109 -92 125 -106 51 -45 1292 -1108 1435
-1229 74 -63 140 -119 146 -125 28 -26 129 -111 148 -125 12 -8 26 -19 31 -26
6 -7 33 -31 60 -54 133 -112 379 -324 385 -330 3 -3 32 -28 65 -55 33 -28 62
-52 65 -55 3 -3 52 -46 110 -95 123 -106 122 -104 270 -231 149 -128 145 -125
280 -240 63 -54 120 -103 126 -109 6 -5 35 -30 64 -55 30 -25 150 -127 267
-227 117 -101 216 -183 219 -183 3 0 -4 13 -15 29 -12 16 -21 32 -21 34 0 3
-17 34 -39 69 -40 65 -546 912 -584 978 -12 20 -60 101 -107 179 -47 78 -92
154 -101 169 -9 15 -121 203 -249 417 -128 215 -244 409 -257 432 -20 35 -58
63 -239 180 -118 76 -225 145 -239 153 -13 8 -76 49 -139 90 -64 41 -134 86
-156 100 -22 14 -78 50 -125 80 -47 30 -94 59 -105 65 -11 5 -20 13 -20 17 0
5 -7 8 -15 8 -8 0 -15 3 -15 8 0 4 -9 12 -20 17 -12 6 -135 84 -276 175 -140
91 -263 170 -272 175 -10 6 -56 35 -102 66 -47 30 -155 100 -240 154 -85 54
-204 131 -265 170 -60 39 -126 81 -145 92 l-35 21 -157 -186z"/>
<path d="M1390 3823 l0 -918 171 -215 c94 -118 181 -226 193 -240 11 -14 34
-43 51 -65 30 -41 52 -68 70 -89 6 -6 33 -40 60 -75 28 -34 77 -97 111 -140
68 -85 435 -546 829 -1041 142 -179 287 -361 322 -405 35 -44 70 -87 76 -95
37 -48 133 -167 143 -179 10 -11 13 227 12 1167 l0 1181 35 38 c19 21 98 112
177 203 78 91 156 181 174 200 17 19 74 85 126 145 52 61 99 113 104 117 13 9
43 -7 -684 355 -349 173 -933 463 -1296 644 -364 181 -665 329 -668 329 -3 0
-6 -413 -6 -917z"/>
<path d="M1219 2998 c-1 -45 -1 -2609 0 -2628 1 -13 121 -15 1016 -15 558 0
1016 2 1016 5 1 3 2 29 3 57 2 49 -2 57 -46 115 -27 35 -57 72 -66 83 -9 11
-69 85 -132 165 -63 80 -120 152 -127 160 -7 8 -89 112 -183 230 -202 254
-152 192 -390 490 -107 135 -199 250 -205 257 -5 6 -40 49 -76 95 -60 76 -328
413 -356 448 -49 61 -163 205 -296 373 -146 184 -157 196 -158 165z"/>
<path d="M4958 2958 c5 -7 19 -29 29 -48 23 -41 84 -149 131 -229 18 -31 37
-65 42 -76 6 -11 14 -27 20 -35 21 -33 90 -151 90 -154 0 -2 26 -48 58 -103
32 -54 61 -105 65 -113 4 -8 17 -31 28 -50 12 -19 84 -145 162 -280 77 -135
151 -262 163 -282 13 -21 24 -40 24 -43 0 -2 20 -39 45 -81 25 -41 45 -78 45
-82 0 -3 6 -13 14 -21 7 -9 27 -41 43 -71 23 -42 441 -772 556 -970 11 -19 26
-46 33 -60 l14 -25 1186 0 c652 0 1187 3 1190 6 2 3 -39 77 -91 164 -52 87
-95 160 -95 161 0 2 -20 35 -45 74 -25 39 -45 72 -45 75 0 2 -15 29 -34 58
-19 29 -45 71 -58 94 -12 22 -79 136 -148 252 l-125 211 -495 245 c-272 135
-502 250 -510 255 -8 6 -24 14 -35 19 -11 5 -523 259 -1138 565 -615 306
-1121 556 -1124 556 -3 0 -1 -6 5 -12z"/>
</g>
</svg>
